<?xml version="1.0" encoding="UTF-8" standalone="no"?>
<svg
   width="274.00543mm"
   height="282.37985mm"
   viewBox="0 0 274.00544 282.37984"
   version="1.1"
   xmlns="http://www.w3.org/2000/svg">
  <g
     transform="translate(-332.80514,-1179.1471)"
     style="display:inline">
    <g
       id="g1686"
       transform="translate(10.263539,259.80686)">
      <circle
         style="fill:#d1884f;fill-opacity:1;stroke:#ffffff;stroke-width:2.032;stroke-linecap:round;stroke-linejoin:round;stroke-miterlimit:4;stroke-dasharray:none;stroke-opacity:1"
         id="path1293-2-6-7"
         cx="459.54431"
         cy="1064.3298"
         r="135.98671" />
      <circle
         style="fill:#d1884f;fill-opacity:1;stroke:#ffffff;stroke-width:6.07966;stroke-linecap:round;stroke-linejoin:round;stroke-miterlimit:4;stroke-dasharray:none;stroke-opacity:1"
         id="path1293-2-6"
         cx="459.54431"
         cy="1064.3298"
         r="128.53311" />
      <circle
         style="fill:#d1884f;fill-opacity:1;stroke:#ffffff;stroke-width:5.485;stroke-linecap:round;stroke-linejoin:round;stroke-miterlimit:4;stroke-dasharray:none;stroke-opacity:1"
         id="path1293-2"
         cx="459.54431"
         cy="1064.3298"
         r="115.96116" />
      <circle
         style="fill:#00aee6;fill-opacity:1;stroke:#633001;stroke-width:11.9023;stroke-linecap:round;stroke-linejoin:round;stroke-miterlimit:4;stroke-dasharray:none;stroke-opacity:1"
         id="path1293"
         cx="459.54431"
         cy="1064.3298"
         r="98.691414" />
      <path
         id="Trace Path 4 (3) (J) (J) (J) (J)-3-9-6-9"
         style="fill:#ec4034;fill-opacity:1;stroke:#ec4034;stroke-width:1.37;stroke-miterlimit:4;stroke-dasharray:none;stroke-opacity:1"
         d="m 507.4345,1069.0503 c -1.0432,0 -0.31428,2.3157 1.78027,5.6565 3.31936,5.2944 10.20252,21.0114 14.22548,32.4833 1.68021,4.7913 6.78688,23.436 7.56336,27.6143 0.3688,1.9847 1.4238,7.5776 2.34455,12.4292 0.92041,4.8512 2.05483,15.6768 2.52129,24.0564 0.46649,8.3796 1.03638,16.7764 1.26609,18.6594 0.23008,1.8829 0.75086,3.2184 1.15702,2.9672 1.5652,-0.9673 7.94213,-10.6919 11.02622,-16.815 7.75182,-15.3897 11.38783,-27.8144 11.96824,-40.8962 l 0.39122,-8.8206 -4.77129,-7.2172 c -6.34685,-9.6003 -9.96426,-14.0601 -19.27016,-23.7603 -9.44166,-9.8419 -28.36632,-26.357 -30.20229,-26.357 z m -85.96633,3.2075 c -6.03017,0 -6.53585,0.1368 -8.64701,2.3405 -2.18808,2.2835 -2.23819,4.0746 -0.11369,4.0746 0.58153,0 1.50672,0.5413 2.05568,1.2031 0.54898,0.6614 1.24476,1.2025 1.54514,1.2025 1.07537,0 7.71287,-4.6243 9.62059,-6.703 l 1.94408,-2.1177 z m 84.04913,2.3446 c -0.21984,-0.042 -0.19722,0.362 0.17571,1.3327 2.09489,5.4517 3.13804,13.7661 3.2117,25.5912 0.0814,13.1188 -0.60529,18.1695 -3.62874,26.693 -2.02239,5.7013 -1.91627,6.5248 0.96843,7.5303 4.3067,1.5011 16.24685,7.7085 19.57917,10.1782 4.68402,3.4713 5.0869,3.2732 4.26381,-2.1022 -2.69047,-17.5646 -13.17662,-49.8022 -20.74497,-63.7755 -1.68389,-3.1094 -3.3414,-5.3563 -3.82511,-5.4477 z m -71.00237,13.0349 c -0.8786,-0.036 -1.45076,0.9913 -2.17662,3.823 -0.57116,2.2284 -1.25132,4.0519 -1.51101,4.0519 -0.25932,0 -1.08947,-0.7216 -1.84486,-1.6035 -0.75501,-0.8823 -1.65989,-1.6035 -2.0102,-1.6035 -0.67217,0 -3.7439,4.7956 -3.26596,5.0989 0.15314,0.097 1.6692,0.8842 3.36828,1.7487 4.23825,2.1563 9.99275,8.7025 13.29581,15.1252 2.42269,4.7099 3.30618,5.6482 7.34841,7.8026 2.52732,1.3469 6.52039,4.2305 8.87386,6.4079 l 4.27881,3.9589 8.42016,-0.3203 c 12.25608,-0.4665 22.13679,-3.4783 32.1474,-9.7974 2.52069,-1.5914 3.02183,-2.445 3.81939,-6.5061 1.0273,-5.2307 1.40732,-11.2697 0.75036,-11.9263 -0.23751,-0.2375 -1.52132,0.4847 -2.85305,1.6055 -4.13285,3.4774 -4.49564,2.9482 -3.88969,-5.673 l 0.54207,-7.7101 c -7.37941,1.8218 -5.53677,2.4003 -6.56963,11.0272 -0.3651,4.6807 -0.84743,8.8063 -1.07124,9.1684 -0.22381,0.3618 -3.38752,1.4626 -7.03059,2.4459 -8.71844,2.3535 -20.74029,1.9484 -28.67525,-0.9659 -6.74563,-2.4781 -15.72736,-7.7866 -19.08667,-11.2809 -2.57876,-2.6827 -2.62393,-2.8475 -1.73945,-6.3614 1.16342,-4.6196 0.77057,-8.1705 -0.93999,-8.4945 -0.0614,-0.012 -0.12176,-0.019 -0.18034,-0.021 z m -46.79199,7.8749 c -0.25005,0 -2.65803,1.6471 -5.35109,3.6603 -2.69269,2.0131 -7.6024,5.6612 -10.90993,8.1065 -12.53821,9.2692 -18.2299,14.6626 -20.58583,19.5068 -2.53638,5.2156 -2.20586,15.2999 0.6899,21.0493 0.38875,0.7717 0.96475,1.388 1.28003,1.3705 0.31525,-0.018 2.09571,-2.4796 3.95634,-5.4705 1.86063,-2.9908 6.37138,-9.0323 10.02366,-13.4255 3.65231,-4.3929 8.06598,-9.7797 9.80871,-11.9703 1.74273,-2.1908 6.18234,-7.0931 9.86608,-10.8945 l 6.69777,-6.9122 -2.51045,-2.5099 c -1.38057,-1.3806 -2.7151,-2.5105 -2.96519,-2.5105 z m 30.47154,2.4733 c -0.28313,-0.017 -0.75189,0.093 -1.38131,0.2506 -1.20968,0.3033 -3.63699,0.7533 -5.39451,0.9989 -1.75752,0.246 -4.1596,0.9499 -5.33818,1.5648 -1.17822,0.6148 -3.90938,1.1199 -6.06939,1.1224 -3.3212,0 -4.47254,0.4524 -7.46672,2.9057 -2.67071,2.1885 -7.84482,7.6662 -11.72538,12.1512 2.86131,4.0633 14.8641,20.5048 27.02417,28.2898 5.7214,3.6628 12.83666,6.0674 19.23862,7.6315 7.67654,0.017 16.58906,-2.0263 23.76599,-5.6838 5.06431,-2.5807 10.42469,-6.6156 10.42469,-7.8471 0,-0.5708 -1.81841,-3.0774 -4.04059,-5.5707 -4.15983,-4.6667 -5.84798,-5.1536 -6.85641,-1.9766 -0.8845,2.7866 -8.93823,9.9682 -14.03583,12.5155 -6.9406,3.4684 -12.70077,4.6091 -16.90648,3.3491 -1.84298,-0.5519 -4.15763,-1.5324 -5.14387,-2.1787 -3.96597,-2.5987 -5.58334,-10.3508 -3.05303,-14.6342 1.22225,-2.0694 1.18372,-2.3216 -0.80203,-5.2477 -1.34876,-1.9877 -2.08565,-4.1595 -2.08565,-6.1464 0,-3.659 2.95703,-10.6665 6.68072,-15.8311 3.19035,-4.425 4.01453,-5.6125 3.16519,-5.6632 z m 26.14724,25.955 c -1.4169,-0.04 -3.59307,0.7065 -7.03266,2.2567 -7.17843,3.235 -15.03992,4.981 -19.04587,4.2297 -2.19477,-0.4117 -2.83369,-0.1706 -3.91499,1.48 -1.72161,2.6272 -1.7576,6.6829 -0.0744,8.3587 1.04912,1.0439 2.6992,1.3327 7.19492,1.2604 3.20876,-0.052 6.62117,-0.5155 7.58298,-1.0305 0.96219,-0.5148 1.74927,-0.6058 1.74927,-0.2015 0,1.0025 -6.36096,2.5296 -10.53891,2.5296 -3.39815,0 -3.55238,1.0085 -0.28628,1.8712 2.60578,0.6884 8.96027,-0.2122 12.62663,-1.7896 4.79573,-2.0635 11.26442,-7.3899 14.25752,-11.7398 1.39647,-2.0298 2.35038,-3.879 2.1203,-4.1094 -0.23048,-0.2304 -2.729,1.8912 -5.55266,4.7145 -2.82329,2.8233 -6.63903,5.9184 -8.47907,6.8776 -4.34147,2.2629 -4.30409,1.5842 0.0625,-1.1333 4.4269,-2.7548 12.07288,-10.3945 11.65561,-11.6463 -0.41548,-1.2464 -1.07472,-1.8931 -2.32492,-1.928 z m 36.86029,15.0915 -6.15622,2.6955 c -5.91441,2.5899 -6.14672,2.7941 -5.93918,5.1971 0.16981,1.9632 -0.46466,3.2401 -2.95021,5.9361 -3.48951,3.7862 -6.48745,9.095 -6.48745,11.4892 0,3.4562 2.74309,9.76 5.35109,12.2959 1.50635,1.4649 4.25643,3.0699 6.11127,3.5667 5.39316,1.4453 9.43774,0.1983 13.8136,-4.2571 5.78049,-5.8856 7.70372,-12.4653 6.08492,-20.8205 -0.57563,-2.9712 -0.34864,-3.8078 2.13061,-7.8615 1.52596,-2.4948 2.64324,-4.6433 2.48306,-4.7739 -0.16018,-0.1309 -3.47522,-0.9644 -7.36648,-1.8526 z m -21.93406,30.6545 -0.2553,2.6562 c -0.27337,2.848 1.99602,8.0312 4.94027,11.2825 0.95147,1.0506 3.53404,2.7609 5.73919,3.8008 4.58451,2.1619 6.01324,2.2654 10.27742,0.7447 4.24786,-1.5149 5.85888,-3.1883 8.59896,-8.9292 3.7052,-7.7637 3.03943,-10.0521 -1.23508,-4.2442 -2.77815,3.7744 -8.74636,7.1179 -12.70569,7.1179 -5.54892,0 -10.56912,-3.3118 -13.51338,-8.9147 z" />
      <path
         style="opacity:1;fill:url(#linearGradient10911);fill-opacity:1;stroke:none;stroke-width:0.264583px;stroke-linecap:butt;stroke-linejoin:miter;stroke-opacity:1;filter:url(#filter1662)"
         d="m 396.07688,1100.1749 -7.93596,5.997 -9.86046,11.1878 c 7.44005,13.6327 19.40616,23.5316 32.98033,32.5701 0,0 -17.99878,-22.6515 -18.78636,-31.4653 -0.73645,-8.2415 3.60245,-18.2896 3.60245,-18.2896 z"
         id="path1260" />
      <path
         id="Trace Path: 1-7-3-7"
         style="fill:#633001;fill-opacity:1;stroke-width:0.36993"
         d="m 525.22198,1023.6984 c -1.81247,-0.015 -3.41376,0.039 -4.7077,0.1814 -10.35161,1.1378 -10.07901,10.4137 -10.47689,12.2478 -0.39786,1.8341 -3.48687,4.3365 -4.52996,6.429 -1.04309,2.0926 0.81338,5.6834 0.81338,5.6834 0,0 2.73198,-0.5694 -10.18749,4.3992 -12.91947,4.9685 -57.85405,18.6496 -61.80759,19.1245 -1.51765,0.1823 -5.69423,0.3333 -10.25054,0.4526 h 3.76103 l -1.94408,2.1177 c -1.90773,2.0787 -8.54522,6.703 -9.6206,6.703 -0.30038,0 -0.99615,-0.5411 -1.54514,-1.2025 -0.54895,-0.6618 -1.47415,-1.2031 -2.05568,-1.2031 -2.1245,0 -2.07438,-1.7911 0.11369,-4.0746 1.30543,-1.3627 2.00017,-1.9336 3.7636,-2.172 -3.85443,0.072 -7.04607,0.1161 -7.91837,0.1277 0.29935,0.123 0.48368,0.2745 0.48368,0.4392 0,1.1982 -1.82478,1.4521 -4.51083,0.6279 -4.00595,-1.2296 -9.59453,7e-4 -12.8044,2.8189 -3.74108,3.2849 -5.16713,6.248 -5.3702,11.1554 l -0.16795,4.0659 -6.01412,4.4803 c -17.8172,13.275 -21.52017,16.1458 -25.43926,19.7249 -2.35834,2.1533 -5.2677,5.5816 -6.46472,7.6177 -1.98263,3.3726 -2.17332,4.4171 -2.14821,11.7217 0.0265,7.6582 0.15955,8.2708 2.97297,13.6318 4.54723,8.6648 4.14596,8.5087 7.04503,2.7316 2.77958,-5.539 5.85999,-10.0513 12.69587,-18.6004 4.19942,-5.2522 4.45387,-5.4277 7.2435,-4.9853 5.32805,0.8449 9.85377,3.7996 18.8319,12.2928 4.90525,4.6404 10.54225,9.4702 12.52689,10.7327 10.17008,6.4712 25.76578,7.2753 39.29218,2.0268 4.58563,-1.7798 13.07055,-6.404 15.34377,-8.3629 1.16155,-1.0006 1.40319,-0.8626 2.12492,1.2072 0.69953,2.0064 0.5298,2.6618 -1.20404,4.6509 -10.33801,11.8617 -10.839,26.1442 -1.26195,36.005 5.5726,5.7379 14.97655,7.9582 20.84731,4.9222 8.77581,-4.5379 14.22733,-18.482 12.51344,-32.0058 l -0.83664,-6.6058 4.05453,-7.3329 c 2.96349,-5.3588 4.39211,-7.2224 5.30511,-6.9194 5.73905,1.9044 19.56054,9.5645 23.10556,12.8054 4.80425,4.3922 4.25667,2.0936 6.17069,25.9043 0.69138,8.6001 1.47294,17.6218 1.73633,20.0474 l 0.47852,4.4101 3.63287,-4.0081 c 14.36536,-15.8474 25.3253,-41.8052 26.42213,-62.5781 l 0.46768,-8.8506 -4.59404,-7.4264 c -6.32687,-10.2281 -12.85155,-18.2907 -22.8296,-28.2107 -9.72171,-9.6651 -14.20272,-13.7601 -19.30736,-17.6444 -1.98466,-1.5104 -4.59359,-3.6286 -5.79808,-4.7077 l -2.19006,-1.9616 3.30936,-1.4821 c 1.82004,-0.815 5.57654,-3.0994 8.34731,-5.0767 3.59127,-2.5625 5.82004,-3.5957 7.7592,-3.5957 4.23383,0 10.11547,-2.3516 12.93616,-5.1723 3.4348,-3.4347 5.29149,-9.2994 4.52946,-14.3097 -0.67511,-4.4406 -4.15399,-8.6141 -8.94159,-10.7265 l -2.95021,-1.3012 0.26148,-0.3612 c -3.96771,-0.3409 -7.82045,-0.5835 -11.01225,-0.6087 z m -17.82423,45.3104 c 1.83597,0 20.76063,16.5151 30.20229,26.357 9.3059,9.7002 12.92331,14.16 19.27016,23.7603 l 4.77128,7.2172 -0.39121,8.8206 c -0.58039,13.0818 -4.21643,25.5065 -11.96824,40.8962 -3.08409,6.1231 -9.461,15.8477 -11.02622,16.815 -0.40614,0.2512 -0.92694,-1.0843 -1.15702,-2.9672 -0.22972,-1.883 -0.79958,-10.2798 -1.26609,-18.6594 -0.46646,-8.3796 -1.60086,-19.2052 -2.52129,-24.0564 -0.92075,-4.8516 -1.97575,-10.4445 -2.34455,-12.4292 -0.77648,-4.1783 -5.88315,-22.823 -7.56336,-27.6143 -4.02296,-11.4719 -10.90612,-27.1889 -14.22548,-32.4833 -2.09457,-3.3408 -2.82347,-5.6565 -1.78027,-5.6565 z m -1.9172,5.5521 c 0.48371,0.091 2.14122,2.3383 3.82511,5.4477 7.56835,13.9733 18.0545,46.2109 20.74497,63.7755 0.82309,5.3754 0.42021,5.5735 -4.26381,2.1022 -3.33232,-2.4697 -15.27247,-8.6771 -19.57917,-10.1782 -2.8847,-1.0055 -2.9908,-1.829 -0.96843,-7.5303 3.02345,-8.5235 3.71012,-13.5742 3.62874,-26.693 -0.0737,-11.8251 -1.11681,-20.1395 -3.2117,-25.5912 -0.37293,-0.9707 -0.39553,-1.3747 -0.17571,-1.3327 z m -71.00237,13.0349 v 5e-4 c 0.0586,0 0.11896,0.01 0.18034,0.021 1.71056,0.3239 2.10341,3.8749 0.93999,8.4945 -0.88448,3.5139 -0.83931,3.6787 1.73945,6.3614 3.35931,3.4943 12.34104,8.8029 19.08667,11.281 7.93496,2.9143 19.95683,3.3193 28.67525,0.9658 3.64307,-0.9833 6.80678,-2.0841 7.03059,-2.4458 0.22381,-0.3622 0.70614,-4.4878 1.07124,-9.1685 1.03288,-8.6269 -0.80978,-9.2054 6.56963,-11.0272 l -0.54208,7.7101 c -0.60594,8.6212 -0.24317,9.1504 3.8897,5.673 1.33172,-1.1208 2.61554,-1.8431 2.85305,-1.6055 0.65696,0.6566 0.27694,6.6956 -0.75036,11.9263 -0.79756,4.0612 -1.2987,4.9147 -3.81939,6.5061 -10.01061,6.3191 -19.89132,9.3308 -32.1474,9.7974 l -8.42016,0.3203 -4.27881,-3.9589 c -2.35347,-2.1774 -6.34656,-5.061 -8.87386,-6.4079 -4.04223,-2.1544 -4.9257,-3.0927 -7.34841,-7.8026 -3.30305,-6.4227 -9.05756,-12.9689 -13.29581,-15.1252 -1.69908,-0.8645 -3.21514,-1.6517 -3.36828,-1.7487 -0.47794,-0.3033 2.59379,-5.0989 3.26596,-5.0989 0.35031,0 1.25519,0.7212 2.0102,1.6035 0.75539,0.8819 1.58554,1.6035 1.84486,1.6035 0.25969,0 0.93986,-1.8235 1.51101,-4.0519 0.72586,-2.8317 1.29802,-3.859 2.17662,-3.823 z m -46.79198,7.8749 c 0.25008,0 1.58461,1.1299 2.96518,2.5105 l 2.51045,2.5099 -6.69777,6.9123 c -3.68374,3.8013 -8.12334,8.7036 -9.86607,10.8944 -1.74273,2.1906 -6.15638,7.5774 -9.80872,11.9703 -3.65225,4.3932 -8.16303,10.4347 -10.02366,13.4255 -1.86063,2.9909 -3.64111,5.4525 -3.95634,5.4705 -0.3153,0.017 -0.89127,-0.5988 -1.28002,-1.3705 -2.89576,-5.7494 -3.22628,-15.8337 -0.68991,-21.0493 2.35593,-4.8442 8.04762,-10.2376 20.58583,-19.5068 3.30753,-2.4453 8.21724,-6.0934 10.90994,-8.1065 2.69306,-2.0132 5.10103,-3.6603 5.35109,-3.6603 z m 30.47153,2.4733 c 0.84934,0.051 0.0252,1.2382 -3.16518,5.6632 -3.7237,5.1646 -6.68073,12.1721 -6.68073,15.8311 0,1.9869 0.73689,4.1587 2.08566,6.1464 1.98575,2.9261 2.02427,3.1783 0.80203,5.2477 -2.53032,4.2834 -0.91295,12.0355 3.05302,14.6343 0.98624,0.6463 3.30089,1.6267 5.14387,2.1786 4.20572,1.26 9.96588,0.1193 16.90648,-3.3491 5.0976,-2.5473 13.15133,-9.7289 14.03583,-12.5155 1.00843,-3.177 2.69661,-2.6901 6.85641,1.9766 2.22219,2.4933 4.04059,4.9999 4.04059,5.5707 0,1.2315 -5.36038,5.2664 -10.42469,7.8471 -7.17693,3.6575 -16.08945,5.7009 -23.76599,5.6839 -6.40196,-1.5641 -13.51722,-3.9688 -19.23862,-7.6316 -12.16006,-7.785 -24.16286,-24.2265 -27.02417,-28.2898 3.88054,-4.485 9.05465,-9.9627 11.72538,-12.1512 2.99418,-2.4533 4.14552,-2.9057 7.46673,-2.9057 2.16,0 4.89116,-0.5076 6.06938,-1.1224 1.17859,-0.6149 3.58066,-1.3188 5.33818,-1.5648 1.75752,-0.2456 4.18484,-0.6956 5.39451,-0.9989 0.62942,-0.1576 1.09818,-0.2676 1.38131,-0.2506 z m 26.14724,25.955 c 1.25021,0.035 1.90944,0.6816 2.32492,1.928 0.41727,1.2518 -7.22871,8.8915 -11.65561,11.6463 -4.36661,2.7175 -4.40402,3.3962 -0.0626,1.1333 1.84004,-0.9592 5.65579,-4.0543 8.47908,-6.8776 2.82365,-2.8233 5.32214,-4.9449 5.55265,-4.7145 0.23005,0.2305 -0.72382,2.0796 -2.12029,4.1094 -2.9931,4.3499 -9.4618,9.6763 -14.25753,11.7398 -3.66636,1.5774 -10.02085,2.478 -12.62663,1.7896 -3.26609,-0.8627 -3.11187,-1.8712 0.28628,-1.8712 4.17796,0 10.53891,-1.5271 10.53891,-2.5296 0,-0.4043 -0.78706,-0.3133 -1.74927,0.2015 -0.96178,0.515 -4.37422,0.9785 -7.58298,1.0305 -4.49572,0.072 -6.14579,-0.2165 -7.19492,-1.2604 -1.6832,-1.6758 -1.64719,-5.7315 0.0744,-8.3587 1.0813,-1.6506 1.72024,-1.8917 3.91498,-1.48 4.00595,0.7513 11.86744,-0.9947 19.04588,-4.2297 3.43958,-1.5502 5.61575,-2.2967 7.03265,-2.2567 z m 36.86029,15.0916 7.07501,1.6148 c 3.89126,0.8882 7.2063,1.7217 7.36648,1.8526 0.16018,0.1306 -0.95711,2.2791 -2.48306,4.7739 -2.47925,4.0537 -2.70624,4.8903 -2.13061,7.8615 1.6188,8.3553 -0.30441,14.9349 -6.08492,20.8205 -4.37584,4.4554 -8.42047,5.7024 -13.8136,4.2571 -1.85486,-0.4968 -4.60492,-2.1018 -6.11127,-3.5667 -2.608,-2.5359 -5.35109,-8.8397 -5.35109,-12.2959 0,-2.3942 2.99794,-7.703 6.48745,-11.4892 2.48555,-2.696 3.12002,-3.9729 2.95021,-5.9361 -0.20754,-2.403 0.0248,-2.6072 5.93918,-5.1971 z m -21.93406,30.6544 1.84639,3.514 c 2.94426,5.6029 7.96446,8.9147 13.51338,8.9147 3.95933,0 9.92754,-3.3435 12.70569,-7.1179 4.2745,-5.8079 4.94028,-3.5195 1.23508,4.2442 -2.74011,5.7409 -4.3511,7.4143 -8.59896,8.9292 -4.26418,1.5206 -5.69291,1.4172 -10.27742,-0.7447 -2.20515,-1.0399 -4.78772,-2.7502 -5.73919,-3.8008 -2.94425,-3.2513 -5.21364,-8.4345 -4.94027,-11.2825 z" />
      <path
         id="Trace Path 3: 2 (J)-5-1-8"
         fill="#00aee6"
         stroke="none"
         stroke-linejoin="round"
         d="m 499.76111,1061.5913 c 1.22816,2.2459 2.40898,3.4082 3.46215,3.4082 1.97246,0 13.73062,-5.6273 16.79177,-8.0363 l 2.24693,-1.7683 -3.96451,-1.8366 c -2.18072,-1.0103 -5.25001,-1.8005 -6.82073,-1.7561 -1.6595,0.047 -3.48545,-0.4891 -4.35922,-1.2796 -1.95248,-1.7667 -2.33868,-1.7338 -7.74887,0.6589 l -4.5664,2.0194 1.54741,2.5913 c 0.8512,1.425 2.38641,4.1247 3.41147,5.9991 z m -87.77829,31.6744 c -0.61481,3.4462 -0.25006,3.5823 5.63622,2.1001 3.13403,-0.7895 3.84614,-1.3884 5.4779,-4.6108 1.96505,-3.8813 4.67403,-12.1765 4.148,-12.7026 -0.53789,-0.5382 -10.47119,6.2274 -11.21769,7.6401 -0.39471,0.7473 -1.34544,2.0805 -2.11304,2.9624 -0.76723,0.8823 -1.63656,2.9568 -1.93139,4.6108 z m 47.24828,2.6635 c 11.42448,2.2621 25.79801,0.2963 39.47905,-5.3991 4.78464,-1.9917 5.82711,-2.7479 5.82711,-4.2265 0,-3.1902 -4.12396,-15.096 -7.65752,-22.1061 -5.47751,-10.8662 -4.34405,-10.3007 -13.64625,-6.8141 -16.20284,6.0735 -41.56248,13.229 -46.88316,13.229 -3.46068,0 -4.57859,1.5696 -5.14125,7.2173 l -0.51902,5.2119 3.84615,2.4985 c 8.50537,5.5249 15.95387,8.6585 24.69489,10.3891 z m -41.2843,30.7532 c 3.05486,0.671 6.86142,0.3651 11.21361,-0.9016 4.6918,-1.3657 12.02821,-4.8194 12.02821,-5.6625 0,-1.4937 -4.87269,-10.3838 -7.44924,-13.5911 -2.65424,-3.3038 -8.17207,-7.0467 -10.38793,-7.0467 -2.72304,0 -11.83252,15.1526 -11.83252,19.6827 0,3.4551 2.79074,6.7197 6.42787,7.5192 z m 46.79844,11.7807 c 1.37761,2.3579 3.00788,4.2941 3.62344,4.303 0.61518,0.01 3.69298,-1.2226 6.8396,-2.736 l 5.7213,-2.7519 5.58923,1.5256 c 3.0741,0.8393 6.67201,1.5333 7.99488,1.5422 2.24694,0.015 2.57655,-0.3929 4.99477,-6.1911 2.87063,-6.884 4.02628,-11.0087 2.93685,-10.4815 -16.09112,7.7829 -20.09669,8.9951 -32.88878,9.954 l -7.3157,0.5486 z"
         style="stroke-width:0.369927" />
      <g
         style="fill:none"
         id="g935-5-4-8"
         transform="matrix(0.73804555,-0.199349,0.19907028,0.74242338,350.2421,947.09308)">
        <path
           fill-rule="evenodd"
           clip-rule="evenodd"
           d="M 36.1473,30.9487 C 33.1431,14.8619 45.4866,0 61.8515,0 76.2929,0 88,11.7071 88,26.1485 V 58.3857 C 91.6123,58.1308 95.2828,58 99,58 c 3.571,0 7.099,0.1207 10.574,0.3562 V 26.1485 C 109.574,11.7071 121.281,0 135.723,0 c 16.365,0 28.708,14.8619 25.704,30.9487 l -7.076,37.893 C 178.636,79.4445 197,97.8599 197,121 v 14 c 0,19.029 -12.589,34.962 -30.189,45.717 C 149.074,191.556 125.08,198 99,198 72.9205,198 48.9257,191.556 31.1888,180.717 13.5892,169.962 1,154.029 1,135 V 121 C 1,97.9824 19.175,79.6378 43.2558,69.0139 Z m 109.1357,42.8714 8.28,-44.34 C 155.648,18.315 147.081,8 135.723,8 125.7,8 117.574,16.1254 117.574,26.1485 v 41.0241 c -2.626,-0.3367 -5.295,-0.6035 -8,-0.797 C 106.106,66.1275 102.577,66 99,66 c -3.7238,0 -7.3948,0.1382 -11,0.4067 -2.7056,0.2015 -5.3741,0.4763 -8,0.8212 V 26.1485 C 80,16.1254 71.8746,8 61.8515,8 50.4933,8 41.9263,18.315 44.0113,29.4801 l 8.3078,44.4871 C 26.3477,83.6145 9,101.069 9,121 v 14 c 0,30.376 40.2944,55 90,55 49.706,0 90,-24.624 90,-55 v -14 c 0,-20.033 -17.525,-37.5636 -43.717,-47.1799 z"
           fill="#633001"
           id="path912-6-7-8" />
        <path
           d="m 189,135 c 0,30.376 -40.294,55 -90,55 C 49.2944,190 9,165.376 9,135 v -14 h 180 z"
           fill="#fedc90"
           id="path914-2-8-4" />
        <path
           fill-rule="evenodd"
           clip-rule="evenodd"
           d="M 44.0113,29.4801 C 41.9263,18.315 50.4933,8 61.8515,8 71.8746,8 80,16.1254 80,26.1485 V 67.2279 C 86.125,66.4235 92.4816,66 99,66 c 6.367,0 12.581,0.4041 18.574,1.1726 V 26.1485 C 117.574,16.1254 125.7,8 135.723,8 c 11.358,0 19.925,10.315 17.84,21.4801 l -8.28,44.34 C 171.475,83.4364 189,100.967 189,121 189,151.376 148.706,176 99,176 49.2944,176 9,151.376 9,121 9,101.069 26.3477,83.6145 52.3191,73.9672 Z"
           fill="#d1884f"
           id="path916-9-4-3" />
        <path
           d="m 74,117 c 0,8.284 -4.4772,15 -10,15 -5.5228,0 -10,-6.716 -10,-15 0,-8.284 4.4772,-15 10,-15 5.5228,0 10,6.716 10,15 z"
           fill="#633001"
           id="path918-1-5-1" />
        <path
           d="m 143,117 c 0,8.284 -4.477,15 -10,15 -5.523,0 -10,-6.716 -10,-15 0,-8.284 4.477,-15 10,-15 5.523,0 10,6.716 10,15 z"
           fill="#633001"
           id="path920-2-0-4" />
      </g>
      <path
         id="Trace Path 5: 108 (J)-7-3-9"
         fill="#fcf000"
         stroke="none"
         stroke-linejoin="round"
         d="m 466.9992,1114.8576 c -1.3014,-0.094 -2.16222,-0.2483 -2.88691,-0.5186 -0.56783,-0.2117 -1.53076,-0.4369 -2.1404,-0.5005 -2.95683,-0.3085 -12.39665,-4.0415 -12.87496,-5.0914 -0.17868,-0.3917 0.041,-3.4795 0.52196,-7.3423 0.13725,-1.1027 0.31777,-2.598 0.40137,-3.3227 0.27967,-2.43 0.52161,-2.5813 2.90431,-1.8159 2.00575,0.6444 4.78612,1.2374 7.18843,1.5337 1.01435,0.125 2.2414,0.3488 2.72637,0.4972 0.70693,0.2164 1.75864,0.2837 5.29256,0.3381 4.95998,0.077 5.13201,0.1128 5.13201,1.0879 0,0.6119 -0.6681,4.2716 -1.04653,5.7343 -0.13168,0.5086 -0.31,1.6273 -0.39619,2.4859 -0.21677,2.1574 -0.3089,2.7327 -0.57006,3.5653 -0.12504,0.3966 -0.29706,1.2267 -0.38325,1.8441 -0.11574,0.832 -0.24562,1.1953 -0.50162,1.4036 -0.37437,0.304 -0.50051,0.3077 -3.36709,0.1013 z m 6.30284,0.083 c -0.50569,-0.2301 -0.52567,-0.6788 -0.13465,-2.9842 0.2138,-1.2607 0.50791,-3.1943 0.65328,-4.2967 0.14576,-1.1028 0.40174,-2.402 0.56895,-2.887 0.16758,-0.4849 0.3851,-1.5677 0.48387,-2.4056 0.0987,-0.8379 0.24268,-1.776 0.31999,-2.0849 0.0773,-0.3085 0.18088,-0.7569 0.22972,-0.9962 0.0696,-0.3392 0.22121,-0.4695 0.68881,-0.5904 2.01388,-0.5216 3.464,-0.8187 4.44911,-0.9111 1.76122,-0.1658 5.69911,-0.9685 7.50102,-1.5297 2.21032,-0.6884 3.35414,-0.9193 3.7766,-0.7631 0.29854,0.1105 0.34958,0.2533 0.35106,0.9765 0.001,1.1583 -0.4539,7.6076 -0.64922,9.1868 -0.0873,0.7055 -0.23454,2.0047 -0.32739,2.8866 -0.26154,2.4907 -0.29335,2.6272 -0.65995,2.8233 -1.37687,0.7369 -6.67498,2.3372 -8.20869,2.4796 -0.62815,0.058 -1.46676,0.2468 -1.8637,0.4187 -0.39693,0.172 -1.26294,0.3752 -1.92436,0.4514 -1.68354,0.1934 -5.01141,0.337 -5.25445,0.2261 z m -27.08315,-7.6523 c -2.59579,-1.5326 -6.03833,-4.1843 -8.45211,-6.5108 -1.38944,-1.3391 -1.51078,-1.628 -1.08277,-2.5769 0.17978,-0.3987 0.61704,-2.1604 0.97142,-3.9149 0.35439,-1.7542 0.7258,-3.2879 0.82568,-3.4078 0.20716,-0.2497 1.03765,-0.2948 1.18007,-0.064 0.16019,0.2593 6.05683,3.053 6.446,3.0541 0.21602,4e-4 2.04607,0.9929 2.18701,1.186 0.17459,0.2397 0.005,2.0609 -0.293,3.1437 -0.13353,0.4853 -0.31072,2.0009 -0.39322,3.3678 -0.18423,3.0404 -0.3222,4.7765 -0.41728,5.2478 -0.0988,0.4898 -0.56303,0.7169 -0.9718,0.4753 z m 54.20033,-2.6121 c -0.14279,-0.3721 0.0688,-3.5787 0.35328,-5.3562 0.1339,-0.8379 0.34033,-2.8802 0.45796,-4.5383 0.21123,-2.9697 0.22159,-3.0219 0.67253,-3.4932 0.53603,-0.5593 2.20145,-1.4305 2.73451,-1.4305 0.2031,0 0.43615,0.1261 0.5179,0.2804 0.13168,0.2497 0.65034,5.4232 0.90004,8.9778 0.1202,1.712 -0.0877,2.2173 -1.28366,3.1226 -0.50125,0.3791 -1.49228,1.1408 -2.20255,1.692 -1.30214,1.0106 -1.96061,1.2389 -2.15001,0.7454 z m -71.36793,-13.0355 c -0.90854,-0.6585 -1.12051,-1.2552 -0.87192,-2.4582 0.23342,-1.1297 1.20226,-3.5997 1.57257,-4.0089 0.14316,-0.158 0.39323,-0.2874 0.55562,-0.2874 0.4687,0 1.57922,1.0964 1.57922,1.5592 0,0.9751 -1.36651,5.4335 -1.70499,5.5634 -0.38214,0.1467 -0.45058,0.1245 -1.1305,-0.3681 z"
         style="stroke-width:0.369927" />
      <path
         id="Trace Path 2 (4) (J) (J)-0-6-2"
         fill="#fcdabf"
         stroke="none"
         stroke-linejoin="round"
         d="m 395.64016,1097.3371 c 4.73433,2.3331 10.32247,1.0991 12.29491,-2.7153 2.40639,-4.6537 1.0273,-12.9763 -2.70084,-16.2975 -2.79407,-2.4889 -8.60526,-1.4072 -11.93053,2.221 -2.25176,2.4575 -2.63352,3.4626 -2.63352,6.9347 0,5.0806 1.56147,8.1773 4.96998,9.8571 z m 127.74121,-46.2843 c 8.08699,2.5444 15.49367,0.1273 18.69392,-6.1004 4.63076,-9.0115 -1.73237,-16.7703 -14.35282,-17.5017 -9.33772,-0.5408 -14.368,3.5391 -14.36134,11.6483 0.005,6.406 2.7334,9.661 10.02024,11.9538 z m -109.8626,31.5719 c -0.27709,-0.8734 -0.87895,-1.5877 -1.33767,-1.5877 -0.45833,0 -0.61445,0.5708 -0.34698,1.2685 0.26783,0.6977 0.49792,2.0508 0.51123,3.0071 0.0222,1.5792 0.10029,1.6084 0.85084,0.3193 0.45427,-0.781 0.59965,-2.1342 0.32258,-3.0072 z m 96.8552,-36.8481 c -0.68806,-1.7516 -1.5611,-2.9935 -1.94028,-2.7593 -1.03837,0.6418 -0.83195,2.1755 0.55934,4.1624 1.98762,2.8377 2.74486,2.0686 1.38094,-1.4031 z"
         style="stroke-width:0.369927" />
      <g
         id="g1172-9-1-0"
         transform="matrix(0.24056747,-0.07329959,0.08511352,0.19726275,452.89408,1111.5736)">
        <path
           style="fill:#633001;fill-opacity:1;stroke:#633001;stroke-width:0.622238;stroke-miterlimit:4;stroke-dasharray:none;stroke-opacity:1"
           d="M 90.76418,-81.291953 C 71.266557,-104.01612 55.306276,-122.62828 55.296887,-122.6523 c -0.0094,-0.024 5.5496,-5.41362 12.35331,-11.97689 l 12.370377,-11.93321 h 46.223586 46.22359 l 12.37031,11.93291 c 6.80367,6.56309 12.36258,11.95293 12.35314,11.9774 -0.0272,0.0705 -70.91385,82.677105 -70.94701,82.676944 -0.0164,0 -15.98239,-18.592641 -35.48001,-41.316807 z m 68.94743,-2.169312 c 18.39091,-21.439555 33.43802,-38.998855 33.43802,-39.020645 0,-0.0218 -4.91361,-4.78169 -10.91914,-10.57754 l -10.91914,-10.53792 -45.06736,1.5e-4 -45.06735,1.5e-4 -10.919141,10.5386 c -6.00553,5.79623 -10.919144,10.55585 -10.919144,10.57693 0,0.0476 66.864715,78.001031 66.905635,78.001186 0.0163,6e-5 15.0767,-17.541349 33.46762,-38.980911 z m -43.47484,20.211651 c -5.4877,-6.38736 -9.97416,-11.618859 -9.96992,-11.625553 0.004,-0.0067 1.24507,0.277565 2.75739,0.631694 3.30038,0.772815 4.21862,0.971496 6.27102,1.356849 4.8503,0.910688 8.94687,1.323205 13.13848,1.32301 2.89562,0 4.95611,-0.14579 7.76643,-0.549022 1.83866,-0.263813 3.14992,-0.525623 6.37373,-1.272605 1.60881,-0.372766 2.9293,-0.671334 2.93442,-0.66348 0.0141,0.02164 -19.20756,22.383158 -19.25375,22.398847 -0.0221,0.0075 -4.5301,-5.212384 -10.0178,-11.59974 z m 16.09586,0.543903 c 3.32975,-3.876062 6.04234,-7.059151 6.02795,-7.073526 -0.0144,-0.01438 -0.42557,0.03941 -0.91375,0.119526 -6.98185,1.145786 -14.30411,0.919929 -22.88038,-0.705757 -0.58867,-0.111581 -1.08159,-0.191602 -1.09538,-0.177819 -0.0138,0.01378 1.51426,1.817224 3.39565,4.007646 1.8814,2.190414 4.75317,5.533892 6.38173,7.429945 1.62855,1.896055 2.97654,3.447372 2.99554,3.447372 0.019,0 2.75888,-3.171322 6.08864,-7.047387 z m -3.89889,-18.050648 c -1.74144,-0.02912 -3.46656,-0.06927 -3.83361,-0.08923 l -0.66736,-0.03628 -0.32926,-0.55945 c -0.87379,-1.484707 -1.98277,-2.624341 -3.59671,-3.696139 -5.05044,-3.353956 -13.12575,-3.915814 -18.40868,-1.28083 -1.06244,0.529918 -1.700021,0.970223 -2.666777,1.841631 -0.325503,0.293397 -0.64869,0.583389 -0.718192,0.64443 l -0.126368,0.110986 -7.448972,-8.803973 c -4.096934,-4.842184 -7.481972,-8.849516 -7.522306,-8.905166 -0.06209,-0.0857 -0.05755,-0.0975 0.02959,-0.0771 0.38092,0.0892 5.685914,1.02921 7.303146,1.29406 5.479172,0.89731 11.741929,1.664998 18.336959,2.247737 4.97859,0.439909 9.34067,0.737305 18.28735,1.246782 9.13306,0.520093 12.79877,0.802722 16.54146,1.275365 5.83506,0.736875 9.82206,2.060267 11.19226,3.715012 1.27152,1.535568 1.20417,3.602925 -0.18768,5.760769 -0.68227,1.057749 -2.06979,2.196678 -3.63138,2.980779 -2.6102,1.310628 -5.80372,1.969487 -11.04251,2.278199 -1.48296,0.0874 -7.72051,0.115791 -11.51096,0.05241 z m 9.7059,-2.600088 c 4.56492,-0.147879 7.46546,-0.539382 9.87014,-1.332225 2.77903,-0.916272 4.56817,-2.361924 5.01547,-4.05258 0.29793,-1.12607 -0.15155,-1.677356 -1.99847,-2.45115 -3.33177,-1.395884 -8.53596,-2.106631 -20.61043,-2.814813 -1.66007,-0.09736 -4.85591,-0.284528 -7.10188,-0.415916 -10.52126,-0.615496 -17.06323,-1.16303 -24.087215,-2.015993 -2.860836,-0.347406 -6.289692,-0.824862 -8.433484,-1.17433 -0.56963,-0.09286 -1.04303,-0.162395 -1.051999,-0.154526 -0.02093,0.01836 8.570166,10.175344 8.625048,10.197127 0.02265,0.009 0.217813,-0.1021 0.433701,-0.246869 2.150819,-1.44228 4.786949,-2.340741 8.031669,-2.737393 1.04752,-0.128055 3.8627,-0.145714 4.91213,-0.03081 4.18833,0.458574 7.73567,1.753037 10.52967,3.842395 0.84272,0.630185 2.20384,1.977583 2.77968,2.751665 l 0.42926,0.577028 1.07593,0.008 c 0.59175,0.0044 2.02136,0.02595 3.17689,0.04796 3.37908,0.06434 6.46631,0.06525 8.40389,0.0025 z m 30.75182,-18.274093 c -1.43462,-2.90175 -2.60602,-4.52723 -4.43726,-6.1573 -5.08577,-4.52708 -13.19709,-7.16623 -24.47991,-7.96495 -3.58386,-0.2537 -8.81079,-0.32025 -12.33951,-0.15711 -3.59035,0.16599 -8.75008,0.10309 -12.04361,-0.14682 -10.33475,-0.78419 -16.712169,-3.5338 -18.286283,-7.88407 -0.399495,-1.10406 -0.4452,-2.14381 -0.156703,-3.5649 0.201454,-0.99232 0.390252,-1.54991 0.811575,-2.39688 0.485397,-0.97578 1.017473,-1.70221 1.88891,-2.57888 1.122911,-1.12966 2.277611,-1.9497 3.906031,-2.77398 4.18566,-2.1187 9.75994,-3.32326 17.01493,-3.67681 1.86185,-0.0907 6.24544,-0.0402 7.6937,0.0886 4.31583,0.38397 7.80687,1.1521 11.09669,2.44161 0.95646,0.3749 3.1638,1.47521 3.92036,1.9542 2.70092,1.71003 4.59692,3.57872 6.02282,5.93605 1.03907,1.71783 1.7412,3.67152 2.08246,5.7945 l 0.13405,0.83393 h 10.34325 10.34326 v -7.16836 -7.16836 l 4.86541,4.81586 c 2.67598,2.64872 5.89817,5.84119 7.16043,7.09438 l 2.29503,2.27852 -8.75364,10.46562 c -4.8145,5.7561 -8.76359,10.47558 -8.77576,10.48774 -0.0121,0.0122 -0.14996,-0.2365 -0.30623,-0.55258 z m 7.6251,-12.26321 6.66116,-7.96002 -4.03935,-4.00927 c -2.22165,-2.2051 -4.05933,-4.00943 -4.08374,-4.00961 -0.0244,-1.8e-4 -0.0444,2.38324 -0.0444,5.29649 v 5.29682 h -12.86745 -12.86744 l -0.0304,-0.36989 c -0.0167,-0.20344 -0.0589,-0.79787 -0.0936,-1.32096 -0.23316,-3.50919 -1.59235,-6.49539 -4.06992,-8.94182 -3.16922,-3.1294 -8.25617,-5.25118 -14.57625,-6.07981 -2.43501,-0.31925 -3.21771,-0.36176 -6.62842,-0.35994 -3.80153,0.002 -5.67345,0.1171 -8.6998,0.53484 -7.07091,0.97603 -12.06429,3.10177 -14.26816,6.07412 -0.67895,0.91571 -1.087759,1.95048 -1.300599,3.2921 -0.426996,2.69154 2.550119,5.13991 7.922669,6.51558 3.41917,0.87549 7.2264,1.32785 12.52863,1.48859 2.29796,0.0697 4.30908,0.0446 8.25593,-0.10273 3.56765,-0.13321 7.85799,-0.073 11.3926,0.15974 8.00262,0.52706 14.65474,1.99291 19.85568,4.37536 4.11057,1.88296 7.4484,4.53137 9.63181,7.64238 0.43251,0.61626 0.45878,0.64184 0.55693,0.54241 0.0567,-0.0574 3.10054,-3.68636 6.76417,-8.06438 z m -105.223742,-1.59753 c -2.668919,-3.15432 -4.898488,-5.83634 -4.954597,-5.96004 -0.05611,-0.1237 -0.102568,-0.33143 -0.103241,-0.46164 -0.0027,-0.5148 0.08608,-0.66148 0.906815,-1.49903 0.779063,-0.79502 7.428652,-7.26193 13.203856,-12.84112 l 3.075045,-2.97068 h 6.125696 c 5.167469,0 6.112139,0.0126 6.039035,0.0805 -0.04766,0.0443 -0.912254,0.74303 -1.921313,1.55282 -1.009058,0.80979 -2.154237,1.7495 -2.54484,2.08825 -1.036106,0.89856 -3.604973,3.49963 -4.528223,4.58499 -3.400718,3.99782 -6.00317,8.28149 -7.915321,13.02869 -0.81673,2.02766 -1.36165,3.73551 -2.029947,6.36211 -0.236035,0.92768 -0.445179,1.7055 -0.464767,1.72849 -0.01959,0.023 -2.219276,-2.53901 -4.888198,-5.69332 z m 3.870777,-0.37028 c 1.409341,-4.34683 3.631663,-8.83386 6.236048,-12.59104 1.790543,-2.58311 3.582978,-4.72703 5.826234,-6.96873 l 1.199277,-1.19844 h -1.969588 -1.969588 l -3.075045,2.9706 c -1.691275,1.63383 -4.817362,4.66323 -6.946861,6.73199 -2.129499,2.06877 -4.165189,4.04256 -4.523755,4.38621 l -0.651939,0.62482 2.807468,3.32326 c 1.544106,1.8278 2.821778,3.32432 2.839268,3.32561 0.01749,10e-4 0.120308,-0.27064 0.228481,-0.60428 z m 79.486385,-15.94964 c -0.97888,-1.38103 -1.92417,-2.4512 -3.06964,-3.47518 -1.32898,-1.18801 -1.26922,-1.14804 -4.41479,-2.95295 l -1.71569,-0.98446 h 6.52027 c 6.4334,0 6.52075,0.002 6.55724,0.11649 0.0203,0.0641 0.041,0.68327 0.0459,1.37599 0.007,1.01483 -0.0116,1.35147 -0.0964,1.73296 -0.24383,1.09653 -0.69681,2.15283 -1.27342,2.96948 -0.29055,0.41151 -1.8117,2.09061 -1.89395,2.09061 -0.0224,0 -0.31916,-0.39283 -0.65948,-0.87294 z m 0.96487,-3.72849 c 0.17172,-0.44699 0.27867,-0.82108 0.27916,-0.97651 6.5e-4,-0.0942 -0.0827,-0.10357 -0.91699,-0.10357 -0.50453,0 -0.91733,0.0156 -0.91733,0.0347 0,0.0458 1.32128,1.44108 1.36664,1.4432 0.0193,9e-4 0.1041,-0.17814 0.18852,-0.39785 z"
           id="path1110-3-0-6" />
        <path
           style="fill:#fdf600;stroke-width:0.0591823"
           d="m 119.8634,-63.095413 c -3.48721,-4.059796 -6.33111,-7.390721 -6.31977,-7.402061 0.0113,-0.01134 0.58985,0.08608 1.2856,0.216477 5.40793,1.013575 9.74486,1.416969 14.49055,1.347824 3.13407,-0.04566 5.24922,-0.226009 8.18868,-0.698202 0.41778,-0.06711 0.76881,-0.11282 0.78006,-0.101562 0.0274,0.02744 -11.95721,13.976459 -12.02869,14.000286 -0.0308,0.01027 -2.90921,-3.302973 -6.39643,-7.362762 z m 8.65911,-20.322506 c -1.07416,-0.02183 -2.20602,-0.04525 -2.51525,-0.05203 l -0.56223,-0.01235 -0.39769,-0.543299 c -3.98266,-5.440788 -13.3442,-8.066156 -21.3397,-5.984539 -1.64669,0.428714 -3.54528,1.249912 -4.755587,2.056946 l -0.571113,0.380817 -3.80838,-4.501976 c -2.09461,-2.476085 -4.033555,-4.767377 -4.308768,-5.091757 -0.403089,-0.475103 -0.472136,-0.582906 -0.355094,-0.55441 0.261332,0.06363 3.598079,0.566233 5.371319,0.809071 7.952253,1.08903 15.716203,1.798418 26.909983,2.458749 1.36711,0.08065 2.95172,0.174117 3.52135,0.207711 0.56963,0.03359 2.18087,0.127346 3.58053,0.20834 10.05706,0.581977 14.64601,1.043743 18.25775,1.837197 2.71653,0.596786 4.84304,1.472546 5.32642,2.193576 0.13076,0.195062 0.14795,0.283156 0.14795,0.758429 0,0.517785 -0.0101,0.558559 -0.27149,1.099141 -0.54329,1.123493 -1.47531,1.959912 -3.0695,2.754671 -1.91218,0.953286 -4.87899,1.595538 -8.58425,1.858319 -2.48692,0.176376 -7.41174,0.222342 -12.57625,0.117394 z m 40.72451,-22.935261 c -0.72146,-1.01498 -1.34738,-1.75339 -2.25402,-2.6591 -2.75806,-2.75529 -6.37248,-4.87583 -10.9993,-6.45318 -5.26526,-1.79501 -11.25055,-2.77148 -19.06729,-3.11075 -2.14645,-0.0932 -7.06087,-0.0871 -8.99572,0.011 -2.06455,0.10475 -8.41037,0.10959 -10.12018,0.008 -4.3439,-0.25882 -7.54568,-0.69795 -10.26526,-1.40791 -4.48377,-1.17051 -7.26988,-3.01164 -7.848905,-5.18673 -0.179512,-0.67434 -0.0083,-2.03359 0.383275,-3.04259 1.64728,-4.24478 8.2889,-7.11177 18.41149,-7.94769 1.75968,-0.14532 3.19703,-0.19864 5.41518,-0.20088 2.30967,-0.002 3.45893,0.0481 5.26723,0.23108 5.88267,0.59535 10.78806,2.25695 14.2523,4.82769 2.41922,1.79525 4.12956,4.10856 5.00692,6.77208 0.45694,1.38719 0.66221,2.60808 0.748,4.4489 l 0.0393,0.84335 h 12.92437 12.92437 l 0.0151,-5.30119 0.0151,-5.30119 3.9948,3.94767 c 2.19715,2.17122 4.00157,3.96449 4.00983,3.98505 0.0141,0.0351 -13.03833,15.68408 -13.32126,15.97124 l -0.13154,0.13351 z m -97.095687,-12.22256 c -1.513588,-1.78969 -2.759566,-3.27551 -2.768842,-3.30181 -0.01661,-0.0471 3.893831,-3.86119 11.309986,-11.03135 l 3.776967,-3.65169 1.934129,0.002 1.934131,0.002 -0.833789,0.81209 c -5.564213,5.41941 -9.937494,12.40759 -12.304494,19.66165 -0.122143,0.37433 -0.238736,0.69886 -0.259094,0.72118 -0.02036,0.0223 -1.275404,-1.42372 -2.788994,-3.21342 z m 82.597877,-17.30425 -0.63879,-0.6806 h 0.89595 c 0.82528,0 0.89358,0.008 0.8659,0.10357 -0.0165,0.057 -0.0604,0.22075 -0.0974,0.36397 -0.0661,0.25527 -0.32831,0.89366 -0.36712,0.89366 -0.0108,0 -0.30716,-0.30627 -0.6585,-0.6806 z"
           id="path1122-6-6-8" />
        <path
           style="fill:#f50000;stroke-width:0.0591823"
           d="M 92.805971,-83.482416 C 74.431333,-104.90194 59.397538,-122.45053 59.397538,-122.47927 c 0,-0.0288 4.900298,-4.77953 10.889551,-10.5573 l 10.889551,-10.50504 45.06735,-6.4e-4 45.06736,-6.5e-4 10.88955,10.50453 c 5.98925,5.77749 10.88955,10.52938 10.88955,10.55975 0,0.0565 -66.7721,77.907186 -66.83906,77.92874 -0.0203,0.0066 -15.07078,-17.513163 -33.445419,-38.932691 z m 42.200169,21.72831 c 4.7939,-5.582373 9.13819,-10.639948 9.65398,-11.239058 0.51579,-0.599107 0.93055,-1.096541 0.92169,-1.105407 -0.009,-0.0089 -1.21425,0.262556 -2.67865,0.603146 -1.4644,0.340594 -3.11529,0.70998 -3.66864,0.820858 -6.44026,1.290482 -12.4871,1.425472 -19.70772,0.439961 -3.09736,-0.422744 -6.04939,-0.996724 -10.44569,-2.031008 -1.57868,-0.371404 -2.87703,-0.668818 -2.8852,-0.660923 -0.008,0.0079 2.87753,3.381062 6.41267,7.495923 3.53515,4.114865 8.04265,9.364621 10.01668,11.666128 1.97403,2.301502 3.60614,4.179062 3.62692,4.172355 0.0208,-0.0067 3.96006,-4.579601 8.75396,-10.161975 z m 1.86108,-18.938347 c 1.52987,-0.03041 3.20769,-0.08309 3.72849,-0.117082 6.34621,-0.414146 10.17673,-1.558921 12.76683,-3.815427 1.12797,-0.982687 1.88971,-2.175275 2.24567,-3.515802 0.1468,-0.552819 0.17597,-1.599294 0.058,-2.080048 -0.1152,-0.469451 -0.493,-1.22223 -0.79777,-1.589605 -1.33433,-1.608405 -4.98229,-2.897266 -10.3075,-3.641736 -4.08312,-0.570823 -7.03635,-0.798387 -20.4475,-1.575598 -17.13479,-0.993005 -26.476642,-1.998998 -38.222914,-4.116099 -1.541255,-0.27779 -2.824451,-0.49708 -2.851547,-0.48732 -0.0271,0.01 3.347868,4.032344 7.499919,8.939062 l 7.549183,8.921301 0.470946,-0.428632 c 0.851445,-0.774959 1.194327,-1.056874 1.713303,-1.408665 1.71598,-1.163169 3.83711,-1.902513 6.55987,-2.286505 1.04435,-0.147286 4.07375,-0.14613 5.17814,0.0019 3.09514,0.415078 5.80207,1.350817 7.91774,2.737014 0.83471,0.546917 1.34351,0.960098 2.02818,1.647051 0.69512,0.697445 1.07643,1.187293 1.59947,2.054733 l 0.37952,0.629406 1.79058,0.04237 c 0.98483,0.02331 3.18878,0.06192 4.89766,0.0858 1.7089,0.02389 3.18698,0.04696 3.28463,0.05127 0.0977,0.0043 1.42925,-0.01704 2.95911,-0.04745 z m 39.5079,-28.910577 c 3.91611,-4.68724 7.84763,-9.3923 8.73671,-10.45569 0.88908,-1.06339 1.61651,-1.95636 1.61651,-1.98437 0,-0.028 -1.88421,-1.91289 -4.18715,-4.18862 -2.30293,-2.27574 -5.50949,-5.45082 -7.1257,-7.05574 -1.61619,-1.60492 -2.96777,-2.91804 -3.0035,-2.91804 -0.0468,0 -0.065,2.00226 -0.065,7.16106 v 7.16107 h -10.29303 -10.29302 l -0.0305,-0.16276 c -0.0168,-0.0895 -0.0477,-0.29591 -0.0686,-0.45866 -0.13592,-1.05453 -0.52888,-2.54711 -0.95824,-3.63971 -2.40454,-6.11894 -8.36766,-10.2932 -17.20309,-12.04239 -1.72789,-0.34207 -3.4053,-0.55971 -5.80658,-0.7534 -1.2228,-0.0986 -6.22732,-0.0973 -7.75289,0.002 -6.98436,0.45497 -12.25877,1.63685 -16.15678,3.62039 -3.29128,1.6748 -5.401428,3.84334 -6.326799,6.50186 -0.528732,1.51901 -0.667906,3.13502 -0.369098,4.28575 0.307421,1.1839 0.928831,2.2332 1.902132,3.21188 3.241195,3.25912 9.729685,5.06263 19.705905,5.47735 1.94211,0.0807 8.0316,0.0398 9.97404,-0.067 1.693,-0.0931 7.65087,-0.0398 9.73549,0.0871 4.64206,0.28265 8.29133,0.74911 11.65892,1.4903 8.40268,1.84939 14.12119,5.14021 17.26513,9.93555 0.25608,0.3906 0.77419,1.31782 1.15134,2.06048 0.37714,0.74267 0.70548,1.32857 0.72964,1.30201 0.0242,-0.0266 3.24802,-3.8833 7.16413,-8.57054 z m -99.907236,-1.10967 c 0.548748,-2.14862 0.912744,-3.43133 1.313494,-4.62875 2.172238,-6.4905 5.750925,-12.41645 10.474844,-17.34529 1.792654,-1.87041 2.863224,-2.83021 5.604993,-5.02505 1.014579,-0.81219 1.84469,-1.49797 1.84469,-1.52395 0,-0.026 -2.763075,-0.0465 -6.140168,-0.0456 l -6.140168,0.002 -3.314211,3.20441 c -5.819484,5.6267 -12.588324,12.20729 -13.145078,12.7795 -0.296582,0.30481 -0.587382,0.64741 -0.646222,0.76134 -0.149018,0.28852 -0.146955,0.85108 0.0042,1.13625 0.107804,0.20343 9.785043,11.69952 9.852421,11.7042 0.01678,0.001 0.147834,-0.45729 0.291238,-1.01878 z m 79.688606,-21.03932 c 1.4464,-1.55177 2.08298,-2.73155 2.37167,-4.39543 0.0998,-0.57505 0.12382,-1.72943 0.0545,-2.61768 l -0.0404,-0.51784 h -6.5616 c -3.60888,0 -6.56114,0.02 -6.56057,0.0444 6.4e-4,0.0244 0.97545,0.60207 2.16641,1.28368 1.19096,0.68161 2.31566,1.34457 2.49934,1.47323 0.58243,0.40799 1.37324,1.10225 2.23249,1.9599 0.98151,0.97967 1.48996,1.58378 2.3312,2.76976 0.34055,0.48012 0.63586,0.87294 0.65623,0.87294 0.0204,0 0.4032,-0.39282 0.85071,-0.87294 z"
           id="path1118-0-3-9" />
      </g>
    </g>
  </g>
</svg>
